<svg id="Layer_1" data-name="Layer 1" xmlns="http://www.w3.org/2000/svg" width="256" height="256" viewBox="0 0 256 256"><title>get-git-right</title><g style="opacity:0.1"><rect x="61.11" y="63.11" width="133.77" height="133.77" rx="11.09" ry="11.09" transform="translate(-54.43 128.59) rotate(-45)" style="fill:#205081"/><rect x="61.11" y="63.11" width="133.77" height="133.77" rx="11.09" ry="11.09" transform="translate(-54.43 128.59) rotate(-45)" style="fill:none;stroke:#205081;stroke-miterlimit:10;stroke-width:4px"/><rect x="61.11" y="61.11" width="133.77" height="133.77" rx="11.09" ry="11.09" transform="translate(-53.02 128) rotate(-45)" style="fill:#205081"/><rect x="61.11" y="61.11" width="133.77" height="133.77" rx="11.09" ry="11.09" transform="translate(-53.02 128) rotate(-45)" style="fill:none;stroke:#205081;stroke-miterlimit:10;stroke-width:4px"/><path d="M214.75,120.89L135.84,199.8a11.09,11.09,0,0,1-15.68,0L41.25,120.89c-0.12-.12-0.22-0.24-0.33-0.36a11.08,11.08,0,0,0,.33,15.31l78.91,78.91a11.09,11.09,0,0,0,15.68,0l78.91-78.91a11.08,11.08,0,0,0,.33-15.31C215,120.65,214.87,120.77,214.75,120.89Z" style="fill:#205081;opacity:0.15"/><line x1="128" y1="92" x2="128" y2="160.85" style="fill:none;stroke:#205081;stroke-miterlimit:10;stroke-width:4px"/><circle cx="128" cy="94.77" r="14.95" style="fill:#205081;stroke:#205081;stroke-miterlimit:10;stroke-width:4px"/><circle cx="128" cy="162.52" r="9.11" style="fill:#205081;stroke:#205081;stroke-linejoin:round;stroke-width:4px"/><line x1="128" y1="146.11" x2="149.34" y2="130.05" style="fill:none;stroke:#205081;stroke-linejoin:round;stroke-width:4px"/><circle cx="153.71" cy="127.22" r="9.97" style="fill:#205081;stroke:#205081;stroke-linejoin:round;stroke-width:4px"/></g><g style="opacity:0.15"><rect x="61.11" y="63.11" width="133.77" height="133.77" rx="11.09" ry="11.09" transform="translate(-54.43 128.59) rotate(-45)" style="fill:#205081"/><rect x="61.11" y="63.11" width="133.77" height="133.77" rx="11.09" ry="11.09" transform="translate(-54.43 128.59) rotate(-45)" style="fill:none;stroke:#205081;stroke-miterlimit:10;stroke-width:4px"/></g><rect x="61.11" y="61.11" width="133.77" height="133.77" rx="11.09" ry="11.09" transform="translate(-53.02 128) rotate(-45)" style="fill:#50c2c3"/><rect x="61.11" y="61.11" width="133.77" height="133.77" rx="11.09" ry="11.09" transform="translate(-53.02 128) rotate(-45)" style="fill:none;stroke:#1f5180;stroke-miterlimit:10;stroke-width:4px"/><path d="M214.75,120.89L135.84,199.8a11.09,11.09,0,0,1-15.68,0L41.25,120.89c-0.12-.12-0.22-0.24-0.33-0.36a11.08,11.08,0,0,0,.33,15.31l78.91,78.91a11.09,11.09,0,0,0,15.68,0l78.91-78.91a11.08,11.08,0,0,0,.33-15.31C215,120.65,214.87,120.77,214.75,120.89Z" style="fill:#205081;opacity:0.15"/><line x1="128" y1="92" x2="128" y2="160.85" style="fill:none;stroke:#1f5180;stroke-miterlimit:10;stroke-width:4px"/><circle cx="128" cy="94.77" r="14.95" style="fill:#59addf;stroke:#1f5180;stroke-miterlimit:10;stroke-width:4px"/><circle cx="128" cy="162.52" r="9.11" style="fill:#ffbd17;stroke:#205081;stroke-linejoin:round;stroke-width:4px"/><line x1="128" y1="146.11" x2="149.34" y2="130.05" style="fill:none;stroke:#205081;stroke-linejoin:round;stroke-width:4px"/><circle cx="153.71" cy="127.22" r="9.97" style="fill:#ff4e4a;stroke:#205081;stroke-linejoin:round;stroke-width:4px"/></svg>